<svg width="19" height="17" viewBox="0 0 19 17" fill="none" xmlns="http://www.w3.org/2000/svg">
<path d="M1.81765 1.86755L1.81754 1.86765C0.973919 2.71153 0.5 3.85591 0.5 5.04915C0.5 6.24239 0.973919 7.38678 1.81754 8.23065L1.81757 8.23068L8.64557 15.0597L8.99915 15.4133L9.35273 15.0597L16.1777 8.23366C16.606 7.81919 16.9477 7.32375 17.183 6.77612C17.4188 6.2271 17.5429 5.63661 17.5481 5.0391C17.5533 4.4416 17.4395 3.84904 17.2132 3.296C16.9869 2.74297 16.6528 2.24054 16.2303 1.81802C15.8078 1.3955 15.3053 1.06136 14.7523 0.835099C14.1993 0.608836 13.6067 0.494978 13.0092 0.50017C12.4117 0.505362 11.8212 0.6295 11.2722 0.86534C10.7246 1.10058 10.2291 1.44225 9.81468 1.87051L8.99915 2.68535L8.18065 1.86755C8.18061 1.86751 8.18058 1.86748 8.18055 1.86745C7.33668 1.02389 6.19234 0.550007 4.99915 0.550007C3.80591 0.550007 2.66152 1.02393 1.81765 1.86755Z" fill="white" stroke="black"/>
</svg>
